<?xml version="1.0" standalone="no"?><!DOCTYPE svg PUBLIC "-//W3C//DTD SVG 1.1//EN" "http://www.w3.org/Graphics/SVG/1.1/DTD/svg11.dtd"><svg t="1713196825420" class="icon" viewBox="0 0 1024 1024" version="1.1" xmlns="http://www.w3.org/2000/svg" p-id="1836" xmlns:xlink="http://www.w3.org/1999/xlink" width="24" height="24"><path d="M507.360145 574.41405c160.282991 0 207.097528-57.470204 216.089247-71.421769L665.435205 318.07006c-15.35952 14.495547-56.606231 39.966751-157.019093 39.966751-97.788944 0-136.027749-24.191244-150.171307-38.814787l-59.294147 188.666104c9.727696 15.391519 53.534327 66.55792 208.409487 66.525922z m1.087966-411.987126a261.11184 261.11184 0 0 0 103.03678-22.303303l-1.663948 0.671979L573.214087 24.159245a33.534952 33.534952 0 0 0-17.119465-18.55942l-0.191994-0.095997S551.006781 0 513.375957 0s-45.022593 5.791819-45.022593 5.791819a31.35902 31.35902 0 0 0-17.407456 18.143433l-0.063998 0.223993-37.726821 120.092247c28.255117 10.87966 60.894097 17.471454 95.005031 18.175432h0.287991zM963.82588 994.912909a17.375457 17.375457 0 0 0-0.703978-6.943783l0.031999 0.127996-99.580888-325.621824a27.711134 27.711134 0 0 0-24.831224-18.399425h-71.005781l8.543733 27.295147c-10.23968 20.703353-63.486016 101.532827-268.919596 101.532827-196.249867 0-248.664229-73.821693-260.695853-98.460923l9.503703-30.367051H185.29021a27.551139 27.551139 0 0 0-24.799225 18.207431l-0.063998 0.191994L60.846099 988.129121a16.95947 16.95947 0 0 0-0.703978 6.463798v-0.063998l-0.095997 0.863973c0.159995 3.551889 0.511984 6.847786 1.087966 10.111684l-0.063998-0.479985a22.527296 22.527296 0 0 0 21.727321 18.975407h858.405174a22.527296 22.527296 0 0 0 21.727321-18.847411l0.031999-0.127996c0.479985-2.975907 0.767976-6.463798 0.863973-10.015687v-0.095997z" fill="#FF8800" p-id="1837"></path></svg>